<svg width="14" height="13" viewBox="0 0 14 13" fill="none" xmlns="http://www.w3.org/2000/svg">
<path d="M1.6262 10.5323C1.67215 10.1188 1.69512 9.91207 1.75768 9.71883C1.81318 9.54739 1.8916 9.38423 1.9908 9.23379C2.10262 9.06422 2.24971 8.91713 2.54389 8.62295L9.91684 1.25001C10.5612 0.605676 11.6058 0.605677 12.2502 1.25001V1.25001C12.8945 1.89434 12.8945 2.93901 12.2502 3.58334L4.87722 10.9563C4.58304 11.2505 4.43595 11.3976 4.26638 11.5094C4.11594 11.6086 3.95279 11.687 3.78134 11.7425C3.5881 11.8051 3.38135 11.828 2.96786 11.874L1.4585 12.0417L1.6262 10.5323Z" stroke="#23262A" stroke-width="1.3" stroke-linecap="round" stroke-linejoin="round"/>
</svg>
