<svg aria-hidden="true" style="position: absolute; width: 0; height: 0; overflow: hidden;" version="1.1" xmlns="http://www.w3.org/2000/svg" xmlns:xlink="http://www.w3.org/1999/xlink">
<defs>
<symbol id="icon-user" viewBox="0 0 27 32">
<path  stroke-linejoin="round" stroke-linecap="round" stroke-miterlimit="4" stroke-width="3.0476" d="M25.905 29.714c0-2.127 0-3.19-0.262-4.055-0.591-1.948-2.116-3.473-4.064-4.064-0.865-0.262-1.928-0.262-4.055-0.262h-7.619c-2.127 0-3.19 0-4.055 0.262-1.948 0.591-3.473 2.116-4.063 4.064-0.262 0.865-0.262 1.928-0.262 4.055M20.571 9.143c0 3.787-3.070 6.857-6.857 6.857s-6.857-3.070-6.857-6.857c0-3.787 3.070-6.857 6.857-6.857s6.857 3.070 6.857 6.857z"></path>
</symbol>
<symbol id="icon-mail" viewBox="0 0 37 32">
<path  stroke-linejoin="round" stroke-linecap="round" stroke-miterlimit="4" stroke-width="3.3684" d="M1.684 7.579l13.751 9.626c1.114 0.78 1.67 1.169 2.276 1.32 0.535 0.133 1.094 0.133 1.629 0 0.606-0.151 1.162-0.541 2.276-1.32l13.751-9.626M9.768 29.474h17.516c2.83 0 4.245 0 5.325-0.551 0.951-0.484 1.724-1.257 2.208-2.208 0.551-1.081 0.551-2.496 0.551-5.325v-10.779c0-2.83 0-4.245-0.551-5.325-0.484-0.951-1.257-1.724-2.208-2.208-1.081-0.551-2.496-0.551-5.325-0.551h-17.516c-2.83 0-4.245 0-5.325 0.551-0.951 0.484-1.724 1.257-2.208 2.208-0.551 1.081-0.551 2.496-0.551 5.325v10.779c0 2.83 0 4.245 0.551 5.325 0.484 0.951 1.257 1.724 2.208 2.208 1.081 0.551 2.496 0.551 5.325 0.551z"></path>
</symbol>
<symbol id="icon-lock" viewBox="0 0 30 32">
<path  stroke-linejoin="round" stroke-linecap="round" stroke-miterlimit="4" stroke-width="3.0476" d="M22.857 14.476v-4.571c0-4.208-3.411-7.619-7.619-7.619s-7.619 3.411-7.619 7.619v4.571M8.838 29.714h12.8c2.56 0 3.84 0 4.818-0.498 0.86-0.438 1.559-1.138 1.998-1.998 0.498-0.978 0.498-2.258 0.498-4.818v-0.61c0-2.56 0-3.84-0.498-4.818-0.438-0.86-1.138-1.559-1.998-1.998-0.978-0.498-2.258-0.498-4.818-0.498h-12.8c-2.56 0-3.84 0-4.818 0.498-0.86 0.438-1.559 1.138-1.998 1.998-0.498 0.978-0.498 2.258-0.498 4.818v0.61c0 2.56 0 3.84 0.498 4.818 0.438 0.86 1.138 1.559 1.998 1.998 0.978 0.498 2.258 0.498 4.818 0.498z"></path>
</symbol>
</defs>
</svg>
